<mxfile host="app.diagrams.net" modified="2024-02-08T13:36:15.696Z" agent="Mozilla/5.0 (Windows NT 10.0; Win64; x64; rv:122.0) Gecko/20100101 Firefox/122.0" version="23.0.2" etag="FgENxhIq1v9ipejxLJtt" type="github">
  <diagram name="Page-1" id="S1_WxOT9k0YHp3LE1oh8">
    <mxGraphModel>
      <root>
        <mxCell id="0" />
        <mxCell id="1" parent="0" />
      </root>
    </mxGraphModel>
  </diagram>
</mxfile>
